ply
format ascii 1.0
element vertex 8
property double x
property double y
property double z
element face 12
property list int int vertex_index
end_header
-0.0946899 0.0329874 -0.0618736
-0.0946899 0.0329874 0.0587997
-0.0946899 0.187321 0.0587997
-0.0946899 0.187321 -0.0618736
0.0610091 0.0329874 -0.0618736
0.0610091 0.0329874 0.0587997
0.0610091 0.187321 0.0587997
0.0610091 0.187321 -0.0618736
3 0 1 2 
3 0 2 3 
3 0 4 5 
3 0 5 1 
3 7 6 5 
3 7 5 4 
3 1 5 6 
3 1 6 2 
3 7 2 6 
3 7 3 2 
3 7 3 4 
3 0 4 3 
