ply
format ascii 1.0
element vertex 8
property double x
property double y
property double z
element face 12
property list int int vertex_index
end_header
-1825.92395019531 -582.173461914063 -2081.56591796875
-1825.92395019531 -582.173461914063 2090.50268554688
-1825.92395019531 938.427368164063 2090.50268554688
-1825.92395019531 938.427368164063 -2081.56591796875
2997.595703125 -582.173461914063 -2081.56591796875
2997.595703125 -582.173461914063 2090.50268554688
2997.595703125 938.427368164063 2090.50268554688
2997.595703125 938.427368164063 -2081.56591796875
3 0 1 2 
3 0 2 3 
3 0 4 5 
3 0 5 1 
3 7 6 5 
3 7 5 4 
3 1 5 6 
3 1 6 2 
3 7 2 6 
3 7 3 2 
3 7 3 4 
3 0 4 3 
